<?xml version="1.0" encoding="utf-8"?>
<!-- Generator: Adobe Illustrator 23.0.0, SVG Export Plug-In . SVG Version: 6.00 Build 0)  -->
<svg version="1.1" id="Layer_1" xmlns="http://www.w3.org/2000/svg" xmlns:xlink="http://www.w3.org/1999/xlink" x="0px" y="0px"
	 viewBox="0 0 950.3 141.3" style="enable-background:new 0 0 950.3 141.3;" xml:space="preserve">
<style type="text/css">
	.st0{fill:#CB2128;}
	.st1{fill:url(#SVGID_1_);}
	.st2{fill:url(#SVGID_2_);}
	.st3{fill:url(#SVGID_3_);}
	.st4{fill:url(#SVGID_4_);}
	.st5{fill:url(#SVGID_5_);}
	.st6{fill:url(#SVGID_6_);}
	.st7{fill:url(#SVGID_7_);}
	.st8{fill:url(#SVGID_8_);}
</style>
<g>
	<g>
		<polygon class="st0" points="865.7,72.7 918.5,1.2 918.2,72.6 899.7,56.2 		"/>
		<polygon class="st0" points="862.8,29.2 947,27.9 899.8,56.2 		"/>
	</g>
	<g>
		<g>
			
				<linearGradient id="SVGID_1_" gradientUnits="userSpaceOnUse" x1="63.7174" y1="-555.2643" x2="63.7173" y2="315.1751" gradientTransform="matrix(1 0 0 -1 0 143.3053)">
				<stop  offset="0.6224" style="stop-color:#801517"/>
				<stop  offset="0.7391" style="stop-color:#F15826"/>
			</linearGradient>
			<path class="st1" d="M88.2,60.3H34.1l-2.7-3.6l-4,3.6L4.8,138.8h21.7l4-3.6l-2.6-1.2l5.5-19.1h40c34,0,49.2-13.7,49.2-33.4
				C122.6,68.1,110.6,60.3,88.2,60.3z M76.6,98.6H38.1l6.3-21.9h38.6c13.7,0,18.7,2.2,18.7,8.4C101.6,94,92.5,98.6,76.6,98.6z"/>
			
				<linearGradient id="SVGID_2_" gradientUnits="userSpaceOnUse" x1="188.2168" y1="-555.2722" x2="188.2168" y2="315.1776" gradientTransform="matrix(1 0 0 -1 0 143.3053)">
				<stop  offset="0.6224" style="stop-color:#801517"/>
				<stop  offset="0.7391" style="stop-color:#F15826"/>
			</linearGradient>
			<path class="st2" d="M247.1,81.3c0-14-11.8-21-34.1-21h-55.5l-1.7-3.6l-4,3.6l-22.5,78.4h21.7l0,0l4-3.6l-2.3-2.5l5.6-19.5h33.4
				l21.9,25.5h23.6l4-3.6l-8-1.7L213.9,112C234.8,108.5,247.1,96.7,247.1,81.3z M200.8,96.9H163l5.9-20.3h38.9
				c13.4,0,18.4,2.3,18.4,8.4C226.1,92.2,218.1,96.9,200.8,96.9z"/>
			
				<linearGradient id="SVGID_3_" gradientUnits="userSpaceOnUse" x1="777.5204" y1="-555.2643" x2="777.5203" y2="315.1751" gradientTransform="matrix(1 0 0 -1 0 143.3053)">
				<stop  offset="0.6224" style="stop-color:#801517"/>
				<stop  offset="0.7391" style="stop-color:#F15826"/>
			</linearGradient>
			<polygon class="st3" points="851.2,60.3 828.3,60.3 827.3,56.8 823.3,60.3 769,121.4 752.2,60.3 731.4,60.3 730.3,56.8 
				726.3,60.3 703.8,138.8 725.3,138.8 729.3,135.2 726.5,134.6 739.9,88.1 755.2,138.8 776.4,138.8 780.4,135.2 779.8,135 
				821.7,88.4 807.2,138.8 828.7,138.8 832.8,135.2 829.9,134.7 			"/>
			
				<linearGradient id="SVGID_4_" gradientUnits="userSpaceOnUse" x1="552.3193" y1="-555.2643" x2="552.3193" y2="315.1751" gradientTransform="matrix(1 0 0 -1 0 143.3053)">
				<stop  offset="0.6224" style="stop-color:#801517"/>
				<stop  offset="0.7391" style="stop-color:#F15826"/>
			</linearGradient>
			<polygon class="st4" points="559.8,60.3 556.7,56.8 552.7,60.3 530.2,138.8 551.9,138.8 556,135.2 553.5,133.4 574.4,60.3 			"/>
			
				<linearGradient id="SVGID_5_" gradientUnits="userSpaceOnUse" x1="452.9118" y1="-555.2722" x2="452.9117" y2="315.1776" gradientTransform="matrix(1 0 0 -1 0 143.3053)">
				<stop  offset="0.6224" style="stop-color:#801517"/>
				<stop  offset="0.7391" style="stop-color:#F15826"/>
			</linearGradient>
			<path class="st5" d="M504,60.3c-0.3-1.5-1.3-3.6-1.3-3.6l-4,3.6l-54.3,61.1l-16.8-61.1h-19.9l-1.9-3.6l-4,3.6l-22.5,78.4h21.5
				l0,0l0,0h0v0l4-3.6l-2.4-1.8l13-45.2l15.3,50.6h21.2l4-3.6l-0.3-0.5l41.6-46.3l-14.4,50.4h21.5l4-3.6l-2.7-1.1l21.2-73.8
				L504,60.3L504,60.3z"/>
			
				<linearGradient id="SVGID_6_" gradientUnits="userSpaceOnUse" x1="319.0719" y1="-555.2643" x2="319.0717" y2="315.1751" gradientTransform="matrix(1 0 0 -1 0 143.3053)">
				<stop  offset="0.6224" style="stop-color:#801517"/>
				<stop  offset="0.7391" style="stop-color:#F15826"/>
			</linearGradient>
			<polygon class="st6" points="288.5,60.3 285.8,56.8 281.8,60.3 259.3,138.8 356.4,138.8 360.4,135.2 357.7,134.2 361,122.8 
				285.6,122.8 290,107.3 360.6,107.3 364.6,103.7 362.1,102.6 365.6,91.7 294.5,91.7 298.9,76.3 373.8,76.3 377.8,72.7 375.2,71.8 
				378.9,60.3 			"/>
			
				<linearGradient id="SVGID_7_" gradientUnits="userSpaceOnUse" x1="644.1373" y1="-565.4684" x2="644.1372" y2="318.8096" gradientTransform="matrix(1 0 0 -1 0 143.3053)">
				<stop  offset="0.6224" style="stop-color:#801517"/>
				<stop  offset="0.7391" style="stop-color:#F15826"/>
			</linearGradient>
			<path class="st7" d="M682.5,56.8l-4,3.6l-10.8,37.5c-4.9,17.3-16.7,26-34.4,26c-19.9,0-26.7-8.7-21.8-26l10.8-37.5h-14.8
				c-0.3-0.9-3-3.6-3-3.6l-4,3.6l-10.3,36c-7.9,27.9,6.5,43.8,39.9,43.8c34.1,0,51.2-13.4,59.9-43.8l10.3-36h-15.5L682.5,56.8z"/>
		</g>
		
			<linearGradient id="SVGID_8_" gradientUnits="userSpaceOnUse" x1="432.0488" y1="-537.5242" x2="432.0488" y2="308.8558" gradientTransform="matrix(1 0 0 -1 0 143.3053)">
			<stop  offset="0.6224" style="stop-color:#D22B27"/>
			<stop  offset="0.7391" style="stop-color:#F8981D"/>
		</linearGradient>
		<path class="st8" d="M37.4,111.3l-6.8,23.9H8.9l22.5-78.4h60.8c22.5,0,34.4,7.8,34.4,21.2c0,19.7-15.2,33.4-49.2,33.4H37.4z
			 M48.4,73.1L42.1,95h38.6c15.9,0,25-4.6,25-13.6c0-6.2-5-8.4-18.7-8.4L48.4,73.1L48.4,73.1z M195.7,109.7h-33.4l-7.3,25.5h-21.7
			l22.5-78.4H217c22.3,0,34.1,7,34.1,21c0,15.4-12.3,27.2-33.2,30.7l23.8,26.3l-0.4,0.4h-23.6L195.7,109.7z M172.9,73.1L167,93.4
			h37.8c17.3,0,25.3-4.8,25.3-11.9c0-6.1-5-8.4-18.4-8.4L172.9,73.1L172.9,73.1z M285.8,56.8h97.1l-5.1,16h-74.9l-4.5,15.4h71.2
			l-5,15.5H294l-4.5,15.5H365l-4.6,16h-97.1L285.8,56.8z M419.3,84.6l-14.6,50.6h-21.5l22.5-78.4h25.9l16.8,61.1l54.3-61.1h27.9
			l-22.5,78.4h-21.5l14.4-50.4l-45.3,50.4h-21.2L419.3,84.6z M556.7,56.8h21.7L556,135.2h-21.7L556.7,56.8z M594.2,92.7l10.3-36
			h21.7l-10.8,37.5c-4.9,17.3,2,26,21.8,26c17.7,0,29.5-8.7,34.4-26l10.8-37.5h21.7l-10.3,36c-8.7,30.4-25.7,43.8-59.9,43.8
			C600.7,136.5,586.3,120.6,594.2,92.7z M743.9,84.6l-14.6,50.6h-21.5l22.5-78.4h25.9l16.8,61.1l54.3-61.1h27.9l-22.5,78.4h-21.5
			l14.4-50.4l-45.3,50.4h-21.2L743.9,84.6z"/>
	</g>
</g>
</svg>
