<svg width="30" height="30" viewBox="0 0 30 30" fill="none" xmlns="http://www.w3.org/2000/svg">
<path d="M16.5 26.907C19.5259 26.522 22.2917 24.9992 24.2352 22.6482C26.1787 20.2971 27.1541 17.2943 26.9631 14.25C26.7721 11.2056 25.429 8.34823 23.2069 6.25857C20.9848 4.16891 18.0503 3.00378 15 3C11.9459 2.99773 9.00592 4.16001 6.77901 6.25002C4.55209 8.34003 3.20586 11.2005 3.01461 14.2486C2.82337 17.2966 3.8015 20.3029 5.74972 22.6549C7.69793 25.0069 10.4696 26.5275 13.5 26.907V18H10.5V15H13.5V12.519C13.5 10.5135 13.71 9.786 14.1 9.0525C14.4842 8.32678 15.0779 7.73353 15.804 7.35C16.377 7.0425 17.0895 6.858 18.3345 6.7785C18.828 6.747 19.467 6.786 20.2515 6.8985V9.7485H19.5C18.1245 9.7485 17.556 9.813 17.217 9.9945C17.0147 10.0985 16.85 10.2632 16.746 10.4655C16.566 10.8045 16.5 11.1405 16.5 12.5175V15H20.25L19.5 18H16.5V26.907ZM15 30C6.7155 30 0 23.2845 0 15C0 6.7155 6.7155 0 15 0C23.2845 0 30 6.7155 30 15C30 23.2845 23.2845 30 15 30Z" fill="white"/>
</svg>
